<mxfile host="app.diagrams.net" modified="2023-08-26T01:20:56.039Z" agent="Mozilla/5.0 (Windows NT 10.0; Win64; x64) AppleWebKit/537.36 (KHTML, like Gecko) Chrome/116.0.0.0 Safari/537.36" etag="Q8-PPMY--lZqZCMuV35c" version="21.6.9" type="device">
  <diagram name="PÃ¡gina-1" id="yBHkCJSKhaY4Tj-qucJd">
    <mxGraphModel dx="794" dy="677" grid="1" gridSize="10" guides="1" tooltips="1" connect="1" arrows="1" fold="1" page="1" pageScale="1" pageWidth="827" pageHeight="1169" math="0" shadow="0">
      <root>
        <mxCell id="0" />
        <mxCell id="1" parent="0" />
        <mxCell id="Fxy2UOBtcPNBJgfNg50S-2" value="ALUNO" style="swimlane;fontStyle=0;childLayout=stackLayout;horizontal=1;startSize=26;fillColor=#ffe6cc;horizontalStack=0;resizeParent=1;resizeParentMax=0;resizeLast=0;collapsible=1;marginBottom=0;html=1;strokeColor=#d79b00;" parent="1" vertex="1">
          <mxGeometry x="10" y="70" width="140" height="104" as="geometry" />
        </mxCell>
        <mxCell id="Fxy2UOBtcPNBJgfNg50S-3" value="COD_ALUNO" style="text;strokeColor=none;fillColor=none;align=left;verticalAlign=top;spacingLeft=4;spacingRight=4;overflow=hidden;rotatable=0;points=[[0,0.5],[1,0.5]];portConstraint=eastwest;whiteSpace=wrap;html=1;" parent="Fxy2UOBtcPNBJgfNg50S-2" vertex="1">
          <mxGeometry y="26" width="140" height="26" as="geometry" />
        </mxCell>
        <mxCell id="Fxy2UOBtcPNBJgfNg50S-4" value="NOM_ALUNO" style="text;strokeColor=none;fillColor=none;align=left;verticalAlign=top;spacingLeft=4;spacingRight=4;overflow=hidden;rotatable=0;points=[[0,0.5],[1,0.5]];portConstraint=eastwest;whiteSpace=wrap;html=1;" parent="Fxy2UOBtcPNBJgfNg50S-2" vertex="1">
          <mxGeometry y="52" width="140" height="26" as="geometry" />
        </mxCell>
        <mxCell id="Fxy2UOBtcPNBJgfNg50S-5" value="NUM_CPF" style="text;strokeColor=none;fillColor=none;align=left;verticalAlign=top;spacingLeft=4;spacingRight=4;overflow=hidden;rotatable=0;points=[[0,0.5],[1,0.5]];portConstraint=eastwest;whiteSpace=wrap;html=1;" parent="Fxy2UOBtcPNBJgfNg50S-2" vertex="1">
          <mxGeometry y="78" width="140" height="26" as="geometry" />
        </mxCell>
        <mxCell id="Fxy2UOBtcPNBJgfNg50S-10" value="CURSO" style="swimlane;fontStyle=0;childLayout=stackLayout;horizontal=1;startSize=26;fillColor=#ffe6cc;horizontalStack=0;resizeParent=1;resizeParentMax=0;resizeLast=0;collapsible=1;marginBottom=0;html=1;strokeColor=#d79b00;" parent="1" vertex="1">
          <mxGeometry x="480" y="52" width="140" height="78" as="geometry" />
        </mxCell>
        <mxCell id="Fxy2UOBtcPNBJgfNg50S-11" value="COD_CURSO" style="text;strokeColor=none;fillColor=none;align=left;verticalAlign=top;spacingLeft=4;spacingRight=4;overflow=hidden;rotatable=0;points=[[0,0.5],[1,0.5]];portConstraint=eastwest;whiteSpace=wrap;html=1;" parent="Fxy2UOBtcPNBJgfNg50S-10" vertex="1">
          <mxGeometry y="26" width="140" height="26" as="geometry" />
        </mxCell>
        <mxCell id="Fxy2UOBtcPNBJgfNg50S-12" value="NOM_CURSO" style="text;strokeColor=none;fillColor=none;align=left;verticalAlign=top;spacingLeft=4;spacingRight=4;overflow=hidden;rotatable=0;points=[[0,0.5],[1,0.5]];portConstraint=eastwest;whiteSpace=wrap;html=1;" parent="Fxy2UOBtcPNBJgfNg50S-10" vertex="1">
          <mxGeometry y="52" width="140" height="26" as="geometry" />
        </mxCell>
        <mxCell id="Fxy2UOBtcPNBJgfNg50S-14" value="DISCIPLINA" style="swimlane;fontStyle=0;childLayout=stackLayout;horizontal=1;startSize=26;fillColor=#ffe6cc;horizontalStack=0;resizeParent=1;resizeParentMax=0;resizeLast=0;collapsible=1;marginBottom=0;html=1;strokeColor=#d79b00;" parent="1" vertex="1">
          <mxGeometry x="10" y="340" width="160" height="130" as="geometry" />
        </mxCell>
        <mxCell id="Fxy2UOBtcPNBJgfNg50S-15" value="COD_DISCIPLINA" style="text;strokeColor=none;fillColor=none;align=left;verticalAlign=top;spacingLeft=4;spacingRight=4;overflow=hidden;rotatable=0;points=[[0,0.5],[1,0.5]];portConstraint=eastwest;whiteSpace=wrap;html=1;" parent="Fxy2UOBtcPNBJgfNg50S-14" vertex="1">
          <mxGeometry y="26" width="160" height="26" as="geometry" />
        </mxCell>
        <mxCell id="Fxy2UOBtcPNBJgfNg50S-16" value="NOM_DISCIPLINA" style="text;strokeColor=none;fillColor=none;align=left;verticalAlign=top;spacingLeft=4;spacingRight=4;overflow=hidden;rotatable=0;points=[[0,0.5],[1,0.5]];portConstraint=eastwest;whiteSpace=wrap;html=1;" parent="Fxy2UOBtcPNBJgfNg50S-14" vertex="1">
          <mxGeometry y="52" width="160" height="26" as="geometry" />
        </mxCell>
        <mxCell id="Fxy2UOBtcPNBJgfNg50S-17" value="QTD_CARGA_HORARIA" style="text;strokeColor=none;fillColor=none;align=left;verticalAlign=top;spacingLeft=4;spacingRight=4;overflow=hidden;rotatable=0;points=[[0,0.5],[1,0.5]];portConstraint=eastwest;whiteSpace=wrap;html=1;" parent="Fxy2UOBtcPNBJgfNg50S-14" vertex="1">
          <mxGeometry y="78" width="160" height="26" as="geometry" />
        </mxCell>
        <mxCell id="Fxy2UOBtcPNBJgfNg50S-63" value="COD_PROFS_DISCIPLINA" style="text;strokeColor=none;fillColor=none;align=left;verticalAlign=top;spacingLeft=4;spacingRight=4;overflow=hidden;rotatable=0;points=[[0,0.5],[1,0.5]];portConstraint=eastwest;whiteSpace=wrap;html=1;" parent="Fxy2UOBtcPNBJgfNg50S-14" vertex="1">
          <mxGeometry y="104" width="160" height="26" as="geometry" />
        </mxCell>
        <mxCell id="Fxy2UOBtcPNBJgfNg50S-18" value="PROFESSOR" style="swimlane;fontStyle=0;childLayout=stackLayout;horizontal=1;startSize=26;fillColor=#ffe6cc;horizontalStack=0;resizeParent=1;resizeParentMax=0;resizeLast=0;collapsible=1;marginBottom=0;html=1;strokeColor=#d79b00;" parent="1" vertex="1">
          <mxGeometry x="640" y="193" width="140" height="104" as="geometry" />
        </mxCell>
        <mxCell id="Fxy2UOBtcPNBJgfNg50S-19" value="COD_PROFESSOR" style="text;strokeColor=none;fillColor=none;align=left;verticalAlign=top;spacingLeft=4;spacingRight=4;overflow=hidden;rotatable=0;points=[[0,0.5],[1,0.5]];portConstraint=eastwest;whiteSpace=wrap;html=1;" parent="Fxy2UOBtcPNBJgfNg50S-18" vertex="1">
          <mxGeometry y="26" width="140" height="26" as="geometry" />
        </mxCell>
        <mxCell id="Fxy2UOBtcPNBJgfNg50S-20" value="NOM_PROFESSOR" style="text;strokeColor=none;fillColor=none;align=left;verticalAlign=top;spacingLeft=4;spacingRight=4;overflow=hidden;rotatable=0;points=[[0,0.5],[1,0.5]];portConstraint=eastwest;whiteSpace=wrap;html=1;" parent="Fxy2UOBtcPNBJgfNg50S-18" vertex="1">
          <mxGeometry y="52" width="140" height="26" as="geometry" />
        </mxCell>
        <mxCell id="Fxy2UOBtcPNBJgfNg50S-21" value="VAL_SALARIO" style="text;strokeColor=none;fillColor=none;align=left;verticalAlign=top;spacingLeft=4;spacingRight=4;overflow=hidden;rotatable=0;points=[[0,0.5],[1,0.5]];portConstraint=eastwest;whiteSpace=wrap;html=1;" parent="Fxy2UOBtcPNBJgfNg50S-18" vertex="1">
          <mxGeometry y="78" width="140" height="26" as="geometry" />
        </mxCell>
        <mxCell id="Fxy2UOBtcPNBJgfNg50S-36" value="MATRICULA" style="swimlane;fontStyle=0;childLayout=stackLayout;horizontal=1;startSize=26;fillColor=#ffe6cc;horizontalStack=0;resizeParent=1;resizeParentMax=0;resizeLast=0;collapsible=1;marginBottom=0;html=1;strokeColor=#d79b00;" parent="1" vertex="1">
          <mxGeometry x="200" y="130" width="190" height="130" as="geometry" />
        </mxCell>
        <mxCell id="Fxy2UOBtcPNBJgfNg50S-37" value="COD_MATRICULA" style="text;strokeColor=none;fillColor=none;align=left;verticalAlign=top;spacingLeft=4;spacingRight=4;overflow=hidden;rotatable=0;points=[[0,0.5],[1,0.5]];portConstraint=eastwest;whiteSpace=wrap;html=1;" parent="Fxy2UOBtcPNBJgfNg50S-36" vertex="1">
          <mxGeometry y="26" width="190" height="26" as="geometry" />
        </mxCell>
        <mxCell id="Fxy2UOBtcPNBJgfNg50S-38" value="COD_ALUNO" style="text;strokeColor=none;fillColor=none;align=left;verticalAlign=top;spacingLeft=4;spacingRight=4;overflow=hidden;rotatable=0;points=[[0,0.5],[1,0.5]];portConstraint=eastwest;whiteSpace=wrap;html=1;" parent="Fxy2UOBtcPNBJgfNg50S-36" vertex="1">
          <mxGeometry y="52" width="190" height="26" as="geometry" />
        </mxCell>
        <mxCell id="Fxy2UOBtcPNBJgfNg50S-39" value="COD_CURSO" style="text;strokeColor=none;fillColor=none;align=left;verticalAlign=top;spacingLeft=4;spacingRight=4;overflow=hidden;rotatable=0;points=[[0,0.5],[1,0.5]];portConstraint=eastwest;whiteSpace=wrap;html=1;" parent="Fxy2UOBtcPNBJgfNg50S-36" vertex="1">
          <mxGeometry y="78" width="190" height="26" as="geometry" />
        </mxCell>
        <mxCell id="Fxy2UOBtcPNBJgfNg50S-40" value="COD_DISCIPLINA_MATRICULA" style="text;strokeColor=none;fillColor=none;align=left;verticalAlign=top;spacingLeft=4;spacingRight=4;overflow=hidden;rotatable=0;points=[[0,0.5],[1,0.5]];portConstraint=eastwest;whiteSpace=wrap;html=1;" parent="Fxy2UOBtcPNBJgfNg50S-36" vertex="1">
          <mxGeometry y="104" width="190" height="26" as="geometry" />
        </mxCell>
        <mxCell id="Fxy2UOBtcPNBJgfNg50S-43" value="" style="endArrow=none;html=1;rounded=0;entryX=1;entryY=0.5;entryDx=0;entryDy=0;exitX=0;exitY=0.5;exitDx=0;exitDy=0;" parent="1" source="Fxy2UOBtcPNBJgfNg50S-38" target="Fxy2UOBtcPNBJgfNg50S-3" edge="1">
          <mxGeometry width="50" height="50" relative="1" as="geometry">
            <mxPoint x="380" y="300" as="sourcePoint" />
            <mxPoint x="430" y="250" as="targetPoint" />
          </mxGeometry>
        </mxCell>
        <mxCell id="Fxy2UOBtcPNBJgfNg50S-44" value="" style="endArrow=none;html=1;rounded=0;entryX=1;entryY=0.5;entryDx=0;entryDy=0;exitX=0;exitY=0.5;exitDx=0;exitDy=0;" parent="1" source="Fxy2UOBtcPNBJgfNg50S-40" target="Fxy2UOBtcPNBJgfNg50S-15" edge="1">
          <mxGeometry width="50" height="50" relative="1" as="geometry">
            <mxPoint x="340" y="380" as="sourcePoint" />
            <mxPoint x="280" y="354" as="targetPoint" />
          </mxGeometry>
        </mxCell>
        <mxCell id="Fxy2UOBtcPNBJgfNg50S-45" value="" style="endArrow=none;html=1;rounded=0;entryX=1;entryY=0.5;entryDx=0;entryDy=0;exitX=0;exitY=0.5;exitDx=0;exitDy=0;" parent="1" source="Fxy2UOBtcPNBJgfNg50S-11" target="Fxy2UOBtcPNBJgfNg50S-39" edge="1">
          <mxGeometry width="50" height="50" relative="1" as="geometry">
            <mxPoint x="390" y="140" as="sourcePoint" />
            <mxPoint x="350" y="202" as="targetPoint" />
          </mxGeometry>
        </mxCell>
        <mxCell id="Fxy2UOBtcPNBJgfNg50S-47" value="PROFESSORES_DISCIPLINA" style="swimlane;fontStyle=0;childLayout=stackLayout;horizontal=1;startSize=26;fillColor=#ffe6cc;horizontalStack=0;resizeParent=1;resizeParentMax=0;resizeLast=0;collapsible=1;marginBottom=0;html=1;strokeColor=#d79b00;" parent="1" vertex="1">
          <mxGeometry x="430" y="360" width="200" height="104" as="geometry" />
        </mxCell>
        <mxCell id="Fxy2UOBtcPNBJgfNg50S-48" value="COD_PROFS_DISCIPLINA" style="text;strokeColor=none;fillColor=none;align=left;verticalAlign=top;spacingLeft=4;spacingRight=4;overflow=hidden;rotatable=0;points=[[0,0.5],[1,0.5]];portConstraint=eastwest;whiteSpace=wrap;html=1;" parent="Fxy2UOBtcPNBJgfNg50S-47" vertex="1">
          <mxGeometry y="26" width="200" height="26" as="geometry" />
        </mxCell>
        <mxCell id="Fxy2UOBtcPNBJgfNg50S-49" value="COD_PROFESSOR" style="text;strokeColor=none;fillColor=none;align=left;verticalAlign=top;spacingLeft=4;spacingRight=4;overflow=hidden;rotatable=0;points=[[0,0.5],[1,0.5]];portConstraint=eastwest;whiteSpace=wrap;html=1;" parent="Fxy2UOBtcPNBJgfNg50S-47" vertex="1">
          <mxGeometry y="52" width="200" height="26" as="geometry" />
        </mxCell>
        <mxCell id="Fxy2UOBtcPNBJgfNg50S-50" value="COD_DISCIPLINA" style="text;strokeColor=none;fillColor=none;align=left;verticalAlign=top;spacingLeft=4;spacingRight=4;overflow=hidden;rotatable=0;points=[[0,0.5],[1,0.5]];portConstraint=eastwest;whiteSpace=wrap;html=1;" parent="Fxy2UOBtcPNBJgfNg50S-47" vertex="1">
          <mxGeometry y="78" width="200" height="26" as="geometry" />
        </mxCell>
        <mxCell id="Fxy2UOBtcPNBJgfNg50S-56" value="" style="endArrow=none;html=1;rounded=0;entryX=0;entryY=0.5;entryDx=0;entryDy=0;exitX=1;exitY=0.5;exitDx=0;exitDy=0;" parent="1" source="Fxy2UOBtcPNBJgfNg50S-40" target="Fxy2UOBtcPNBJgfNg50S-60" edge="1">
          <mxGeometry width="50" height="50" relative="1" as="geometry">
            <mxPoint x="354" y="367" as="sourcePoint" />
            <mxPoint x="240" y="429" as="targetPoint" />
          </mxGeometry>
        </mxCell>
        <mxCell id="Fxy2UOBtcPNBJgfNg50S-57" value="" style="endArrow=none;html=1;rounded=0;entryX=1;entryY=0.5;entryDx=0;entryDy=0;exitX=0;exitY=0.5;exitDx=0;exitDy=0;" parent="1" source="Fxy2UOBtcPNBJgfNg50S-19" target="Fxy2UOBtcPNBJgfNg50S-49" edge="1">
          <mxGeometry width="50" height="50" relative="1" as="geometry">
            <mxPoint x="494" y="367" as="sourcePoint" />
            <mxPoint x="547" y="682" as="targetPoint" />
          </mxGeometry>
        </mxCell>
        <mxCell id="Fxy2UOBtcPNBJgfNg50S-59" value="DISCIPLINA_MATRICULA&amp;nbsp;" style="swimlane;fontStyle=0;childLayout=stackLayout;horizontal=1;startSize=26;fillColor=#ffe6cc;horizontalStack=0;resizeParent=1;resizeParentMax=0;resizeLast=0;collapsible=1;marginBottom=0;html=1;strokeColor=#d79b00;" parent="1" vertex="1">
          <mxGeometry x="414" y="540" width="200" height="104" as="geometry" />
        </mxCell>
        <mxCell id="Fxy2UOBtcPNBJgfNg50S-60" value="COD_DISCIPLINA_MATRICULA" style="text;strokeColor=none;fillColor=none;align=left;verticalAlign=top;spacingLeft=4;spacingRight=4;overflow=hidden;rotatable=0;points=[[0,0.5],[1,0.5]];portConstraint=eastwest;whiteSpace=wrap;html=1;" parent="Fxy2UOBtcPNBJgfNg50S-59" vertex="1">
          <mxGeometry y="26" width="200" height="26" as="geometry" />
        </mxCell>
        <mxCell id="Fxy2UOBtcPNBJgfNg50S-61" value="COD_MATRICULA" style="text;strokeColor=none;fillColor=none;align=left;verticalAlign=top;spacingLeft=4;spacingRight=4;overflow=hidden;rotatable=0;points=[[0,0.5],[1,0.5]];portConstraint=eastwest;whiteSpace=wrap;html=1;" parent="Fxy2UOBtcPNBJgfNg50S-59" vertex="1">
          <mxGeometry y="52" width="200" height="26" as="geometry" />
        </mxCell>
        <mxCell id="Fxy2UOBtcPNBJgfNg50S-62" value="COD_DISCIPLINA" style="text;strokeColor=none;fillColor=none;align=left;verticalAlign=top;spacingLeft=4;spacingRight=4;overflow=hidden;rotatable=0;points=[[0,0.5],[1,0.5]];portConstraint=eastwest;whiteSpace=wrap;html=1;" parent="Fxy2UOBtcPNBJgfNg50S-59" vertex="1">
          <mxGeometry y="78" width="200" height="26" as="geometry" />
        </mxCell>
        <mxCell id="Fxy2UOBtcPNBJgfNg50S-64" value="" style="endArrow=none;html=1;rounded=0;entryX=1;entryY=0.5;entryDx=0;entryDy=0;exitX=0;exitY=0.5;exitDx=0;exitDy=0;" parent="1" source="Fxy2UOBtcPNBJgfNg50S-48" target="Fxy2UOBtcPNBJgfNg50S-63" edge="1">
          <mxGeometry width="50" height="50" relative="1" as="geometry">
            <mxPoint x="244" y="260" as="sourcePoint" />
            <mxPoint x="210" y="442" as="targetPoint" />
          </mxGeometry>
        </mxCell>
        <mxCell id="Fxy2UOBtcPNBJgfNg50S-65" value="" style="endArrow=none;html=1;rounded=0;entryX=0;entryY=0.5;entryDx=0;entryDy=0;exitX=1;exitY=0.5;exitDx=0;exitDy=0;" parent="1" source="Fxy2UOBtcPNBJgfNg50S-15" target="Fxy2UOBtcPNBJgfNg50S-62" edge="1">
          <mxGeometry width="50" height="50" relative="1" as="geometry">
            <mxPoint x="260" y="410" as="sourcePoint" />
            <mxPoint x="284" y="742" as="targetPoint" />
          </mxGeometry>
        </mxCell>
      </root>
    </mxGraphModel>
  </diagram>
</mxfile>
